<svg xmlns="http://www.w3.org/2000/svg" viewBox="0 0 47.5 47.5" id="Cross"><defs><clipPath id="a"><path d="M0 38h38V0H0v38Z" fill="#000000" class="color000000 svgShape"></path></clipPath></defs><g clip-path="url(#a)" transform="matrix(1.25 0 0 -1.25 0 47.5)" fill="#000000" class="color000000 svgShape"><path fill="#fa0154" d="M37 5a4 4 0 0 0-4-4H5a4 4 0 0 0-4 4v28a4 4 0 0 0 4 4h28a4 4 0 0 0 4-4V5Z" class="color77b255 svgShape"></path><path fill="#ffffff" d="m22.53 18.994 8.238 8.238a2.498 2.498 0 0 1 0 3.535 2.498 2.498 0 0 1-3.535 0l-8.238-8.238-8.238 8.238a2.5 2.5 0 1 1-3.536-3.535l8.239-8.238-8.258-8.258a2.498 2.498 0 0 1 1.767-4.268c.64 0 1.28.244 1.768.733l8.258 8.258 8.238-8.238a2.493 2.493 0 0 1 1.768-.732 2.498 2.498 0 0 1 1.767 4.267l-8.238 8.238Z" class="colorffffff svgShape"></path></g></svg>